<mxfile host="app.diagrams.net" modified="2024-04-05T13:28:22.997Z" agent="Mozilla/5.0 (Macintosh; Intel Mac OS X 10_15_7) AppleWebKit/537.36 (KHTML, like Gecko) Chrome/123.0.0.0 Safari/537.36" version="24.2.2" etag="Ow1YBaa3orsW5VbwO7nG" type="github">
  <diagram name="Page-1" id="pjqdV3K8p3xr_LtQ8koM">
    <mxGraphModel>
      <root>
        <mxCell id="0" />
        <mxCell id="1" parent="0" />
      </root>
    </mxGraphModel>
  </diagram>
</mxfile>
